#!OML:ASF F:\VICON\USERDATA\INSTALL\rory3\rory3.ASF
:FULLY-SPECIFIED
:DEGREES
878
root -2.26701 17.0933 0.366216 33.4013 3.26378 364.139
lowerback -10.5072 -6.43872 -0.804746
upperback -20.9089 -9.44317 -2.93467
thorax -18.7613 -4.95369 -2.40554
lowerneck -7.3168 7.98574 -2.48738
upperneck 2.43984 10.3976 14.6899
head 1.00117 5.56501 5.05617
rclavicle -8.94531e-014 -1.01778e-013
rhumerus -24.8493 5.41756 -1.03581
rradius 17.4465
rwrist 2.68868
rhand 17.3866 4.44182
rfingers 7.12502
rthumb 42.0932 -20.1169
lclavicle -8.94531e-014 -1.01778e-013
lhumerus 70.9348 3.47796 15.0563
lradius 30.8601
lwrist -14.5486
lhand 14.3606 20.7198
lfingers 7.12502
lthumb 39.2494 46.1679
rfemur -52.6066 9.43463 16.5235
rtibia 25.0898
rfoot -51.9433 -42.6403
rtoes 41.6172
lfemur 2.84901 -1.11293 -19.1285
ltibia 1.59028e-014
lfoot -49.252 34.711
ltoes 49.7192
879
root -2.26147 17.0943 0.358733 33.5663 3.55035 364.063
lowerback -10.4283 -6.48919 -0.582492
upperback -21.0038 -9.52241 -2.88689
thorax -18.9945 -5.02188 -2.44524
lowerneck -6.99784 8.03782 -2.7596
upperneck 2.39586 10.5044 14.8013
head 0.905428 5.60553 5.11339
rclavicle -1.63003e-014 -1.59028e-015
rhumerus -24.3864 3.50136 -0.247154
rradius 17.03
rwrist 4.48763
rhand 17.81 4.87257
rfingers 7.12502
rthumb 42.4897 -19.5512
lclavicle -1.63003e-014 -1.59028e-015
lhumerus 71.0394 3.47678 15.6
lradius 30.7681
lwrist -14.9093
lhand 14.2502 20.8284
lfingers 7.12502
lthumb 39.1454 46.3066
rfemur -52.7467 9.20672 16.7094
rtibia 25.0214
rfoot -51.9305 -42.7201
rtoes 41.3845
lfemur 2.66582 -1.27248 -18.9128
ltibia -1.59028e-014
lfoot -49.9289 32.9412
ltoes 50.32
880
root -2.2609 17.0927 0.35006 33.7229 3.56376 364.093
lowerback -10.3941 -6.51805 -0.649529
upperback -21.0057 -9.57147 -2.92862
thorax -19.0224 -5.03988 -2.45045
lowerneck -6.69481 8.07747 -2.79493
upperneck 1.98282 10.6144 14.7517
head 0.725088 5.63112 5.07544
rclavicle 7.55382e-015 1.74931e-014
rhumerus -24.2038 3.08452 -0.158371
rradius 16.8423
rwrist 4.57633
rhand 17.9211 5.3756
rfingers 7.12502
rthumb 42.5938 -19.0123
lclavicle 7.55382e-015 1.74931e-014
lhumerus 71.2694 3.61399 15.7285
lradius 30.6301
lwrist -14.6884
lhand 14.1373 21.0106
lfingers 7.12502
lthumb 39.039 46.5195
rfemur -52.9138 9.15856 16.6706
rtibia 24.9469
rfoot -51.9944 -42.737
rtoes 41.3736
lfemur 2.51589 -1.26001 -18.9074
ltibia 6.36111e-015
lfoot -50.2318 31.6982
ltoes 50.8052
881
root -2.26001 17.0881 0.345403 33.8042 3.43755 364.06
lowerback -10.4481 -6.45806 -0.722844
upperback -20.892 -9.48636 -3.01698
thorax -18.8184 -4.99846 -2.53366
lowerneck -6.74003 8.02788 -2.88051
upperneck 1.56622 10.6008 14.765
head 0.606693 5.60868 5.0828
rclavicle -3.97569e-016 4.29375e-014
rhumerus -24.3607 3.8683 -0.430229
rradius 16.9908
rwrist 3.32159
rhand 17.8044 5.10883
rfingers 7.12502
rthumb 42.4845 -19.3168
lclavicle -3.97569e-016 4.29375e-014
lhumerus 71.749 3.92981 16.2689
lradius 30.337
lwrist -14.6614
lhand 13.998 21.0553
lfingers 7.12502
lthumb 38.9077 46.6017
rfemur -53.0185 9.26149 16.6165
rtibia 24.8848
rfoot -51.9917 -42.7076
rtoes 41.6615
lfemur 2.48976 -1.09998 -18.9151
ltibia -2.54444e-014
lfoot -50.2095 31.2774
ltoes 51.1583
882
root -2.26047 17.0866 0.341237 33.8594 3.46012 363.973
lowerback -10.532 -6.42269 -0.666889
upperback -20.7712 -9.42935 -3.07656
thorax -18.6067 -4.9884 -2.65291
lowerneck -7.08839 7.96118 -2.95783
upperneck 1.6893 10.4977 14.8359
head 0.701894 5.57632 5.13814
rclavicle 2.22639e-014 3.33958e-014
rhumerus -24.4221 3.93968 -0.452866
rradius 17.1222
rwrist 3.06835
rhand 17.7923 4.3204
rfingers 7.12502
rthumb 42.4731 -20.1091
lclavicle 2.22639e-014 3.33958e-014
lhumerus 72.3409 4.29594 17.7588
lradius 29.9572
lwrist -15.6768
lhand 14.3529 20.791
lfingers 7.12502
lthumb 39.2422 46.2413
rfemur -53.0939 9.28435 16.6982
rtibia 24.8633
rfoot -51.9364 -42.6863
rtoes 41.856
lfemur 2.45374 -1.03149 -18.7941
ltibia -2.22639e-014
lfoot -49.9115 31.3469
ltoes 51.2511
